<svg t="1686654416133" class="icon" viewBox="0 0 1024 1024" version="1.1" xmlns="http://www.w3.org/2000/svg" p-id="915" width="200" height="200"><path d="M512 817a305 305 0 1 1 215.67-89.33A303 303 0 0 1 512 817z m0-560c-140.61 0-255 114.39-255 255s114.39 255 255 255 255-114.39 255-255-114.39-255-255-255zM936 537h-40a25 25 0 0 1 0-50h40a25 25 0 0 1 0 50zM810.14 839.14a24.94 24.94 0 0 1-17.68-7.32l-28.28-28.28a25 25 0 1 1 35.36-35.36l28.28 28.28a25 25 0 0 1-17.68 42.68zM784.86 266.14a25 25 0 0 1-17.68-42.68l28.28-28.28a25 25 0 1 1 35.36 35.36l-28.28 28.28a24.94 24.94 0 0 1-17.68 7.32zM129 537H89a25 25 0 0 1 0-50h40a25 25 0 0 1 0 50zM512 154a25 25 0 0 1-25-25V89a25 25 0 0 1 50 0v40a25 25 0 0 1-25 25zM512 961a25 25 0 0 1-25-25v-40a25 25 0 0 1 50 0v40a25 25 0 0 1-25 25zM214.86 839.14a25 25 0 0 1-17.68-42.68l28.28-28.28a25 25 0 1 1 35.36 35.36l-28.28 28.28a24.94 24.94 0 0 1-17.68 7.32zM240.14 266.14a24.94 24.94 0 0 1-17.68-7.32l-28.28-28.28a25 25 0 0 1 35.36-35.36l28.28 28.28a25 25 0 0 1-17.68 42.68z" p-id="916"></path></svg>